<?xml version="1.0" encoding="UTF-8" standalone="no"?>
<svg
   xmlns:dc="http://purl.org/dc/elements/1.1/"
   xmlns:cc="http://creativecommons.org/ns#"
   xmlns:rdf="http://www.w3.org/1999/02/22-rdf-syntax-ns#"
   xmlns:svg="http://www.w3.org/2000/svg"
   xmlns="http://www.w3.org/2000/svg"
   xmlns:xlink="http://www.w3.org/1999/xlink"
   xmlns:sodipodi="http://sodipodi.sourceforge.net/DTD/sodipodi-0.dtd"
   xmlns:inkscape="http://www.inkscape.org/namespaces/inkscape"
   width="95mm"
   height="206mm"
   viewBox="0 0 95 206"
   version="1.1"
   id="svg8"
   inkscape:version="1.0.2 (e86c870879, 2021-01-15)"
   sodipodi:docname="Junats logo2.svg">
  <defs
     id="defs2">
    <linearGradient
       inkscape:collect="always"
       id="linearGradient4684-2">
      <stop
         style="stop-color:#ea1d25;stop-opacity:1"
         offset="0"
         id="stop4680" />
      <stop
         style="stop-color:#4d8d40;stop-opacity:1"
         offset="1"
         id="stop4682" />
    </linearGradient>
    <linearGradient
       inkscape:collect="always"
       xlink:href="#linearGradient4684-2"
       id="linearGradient4686"
       x1="-277.27014"
       y1="145.10736"
       x2="-273.64365"
       y2="325.92468"
       gradientUnits="userSpaceOnUse" />
  </defs>
  <sodipodi:namedview
     id="base"
     pagecolor="#ffffff"
     bordercolor="#666666"
     borderopacity="1.0"
     inkscape:pageopacity="0.0"
     inkscape:pageshadow="2"
     inkscape:zoom="0.98994949"
     inkscape:cx="127.59233"
     inkscape:cy="288.34118"
     inkscape:document-units="mm"
     inkscape:current-layer="layer1"
     showgrid="false"
     width="95mm"
     inkscape:window-width="1366"
     inkscape:window-height="705"
     inkscape:window-x="262"
     inkscape:window-y="1072"
     inkscape:window-maximized="1"
     inkscape:document-rotation="0" />
  <metadata
     id="metadata5">
    <rdf:RDF>
      <cc:Work
         rdf:about="">
        <dc:format>image/svg+xml</dc:format>
        <dc:type
           rdf:resource="http://purl.org/dc/dcmitype/StillImage" />
        <dc:title></dc:title>
      </cc:Work>
    </rdf:RDF>
  </metadata>
  <g
     inkscape:label="Layer 1"
     inkscape:groupmode="layer"
     id="layer1"
     transform="translate(0,-91)">
    <g
       id="g1978">
      <g
         id="g4699"
         transform="matrix(0.87489555,0,0,0.87489555,111.58644,-9.7636526)">
        <path
           id="path66"
           style="fill:#000000;fill-opacity:1;stroke:#000000;stroke-width:0.264583;stroke-opacity:1"
           d="m -41.31514,238.79791 c -0.05696,-0.39818 -0.362302,-0.60528 -1.136224,-0.77064 -2.360236,-0.50431 -2.166339,0.0922 -2.112549,-6.49876 0.02627,-3.21782 0.117398,-5.92024 0.202525,-6.00536 0.08513,-0.0851 0.557125,-0.022 1.04888,0.1403 1.099272,0.36279 2.747158,2.01629 2.98864,2.99881 0.11657,0.47428 0.353071,0.7276 0.679313,0.7276 0.456977,0 0.500131,-0.22424 0.496432,-2.57969 -0.0021,-1.41883 -0.104611,-2.73831 -0.227515,-2.9322 -0.17884,-0.28212 -1.823117,-0.34614 -8.234325,-0.32061 -4.434015,0.0176 -8.218702,0.14313 -8.476345,0.28101 -0.537194,0.2875 -0.959467,3.36038 -0.653323,4.75425 0.244261,1.1121 0.881301,0.94623 1.324002,-0.34476 0.190434,-0.55533 0.550738,-1.23566 0.800677,-1.51184 0.54956,-0.60726 2.61203,-1.43248 3.106218,-1.24284 0.283565,0.10881 0.352185,1.35182 0.339913,6.15728 -0.01722,6.74956 0.142875,6.23785 -2.064313,6.59753 -0.723818,0.11795 -0.992188,0.29192 -0.992188,0.64317 0,0.45293 0.385191,0.4806 6.494037,0.46638 6.399728,-0.0149 6.492903,-0.023 6.416145,-0.55963 z m -27.58736,-4.36932 c -0.176374,-0.28538 0.394751,-1.73016 0.994265,-2.5152 0.344913,-0.45165 0.454348,-0.47116 0.84133,-0.14999 0.472916,0.39248 1.4645,2.18201 1.4645,2.643 0,0.34826 -3.08575,0.369 -3.300095,0.0222 z m 13.834459,4.56177 c 0.06501,-0.4572 -0.08034,-0.62194 -0.661458,-0.74971 -1.625248,-0.35731 -1.518499,-0.19024 -2.581159,-4.0397 -0.374255,-1.35573 -1.056346,-3.41618 -1.51576,-4.57877 -0.959927,-2.42919 -3.339883,-6.18545 -3.919085,-6.18545 -0.963822,0 -5.107615,6.85351 -6.718877,11.1125 -1.023559,2.70554 -1.047099,2.73181 -1.963333,2.19057 -0.560374,-0.33102 -0.840369,-0.37218 -1.057137,-0.15541 -0.448329,0.44833 0.02577,1.09906 1.481159,2.03298 1.914006,1.22821 2.167953,1.14241 2.167953,-0.73254 0,-1.79712 0.09999,-1.88039 2.258147,-1.88039 1.908659,0 2.768936,0.41232 2.768936,1.32711 0,0.57714 -0.16352,0.75991 -0.858078,0.9591 -0.471945,0.13536 -0.896869,0.44752 -0.944279,0.6937 -0.07796,0.40483 0.376936,0.45567 4.760682,0.53203 7.077863,0.1233 6.685632,0.15372 6.782289,-0.52602 z m 25.978135,-10.89741 c -0.218281,-0.12237 -1.439169,-0.4941 -2.713082,-0.82607 -3.448516,-0.89865 -3.820882,-1.83965 -0.726501,-1.83591 1.723969,0.002 3.475024,0.71737 4.103222,1.67613 0.616944,0.94157 0.244453,1.49492 -0.663639,0.98585 z m -7.192322,11.52911 c 0.09813,-0.8289 0.174408,-0.83923 2.088102,-0.28291 0.944028,0.27444 2.126515,0.38974 3.348014,0.32645 1.612958,-0.0836 2.07096,-0.22391 3.139062,-0.9619 2.69272,-1.86049 3.48103,-5.01515 1.978099,-7.91598 -0.393317,-0.75915 -0.715122,-1.62258 -0.715122,-1.91873 0,-0.29615 0.357188,-1.56932 0.79375,-2.82926 0.917017,-2.64656 0.951461,-2.95596 0.354569,-3.18501 -0.29359,-0.11266 -0.635466,0.0776 -1.031275,0.57403 l -0.592092,0.74255 -2.136185,-0.33231 c -4.6017,-0.71585 -8.139208,0.68276 -9.137531,3.61268 -0.58982,1.73103 -0.522848,3.16584 0.222496,4.76669 0.865574,1.85908 2.265188,2.84006 4.866875,3.41117 2.619084,0.57492 4.01356,1.13111 4.01356,1.60082 0,1.06239 -4.024796,1.14971 -6.020583,0.13061 -0.743823,-0.37982 -1.452253,-1.06655 -2.08798,-2.02402 -0.591463,-0.89081 -1.151642,-1.44916 -1.453896,-1.44916 -0.270439,0 -0.491707,0.14326 -0.491707,0.31835 0,0.53887 1.633834,5.6138 1.923383,5.97431 0.405069,0.50435 0.843537,0.24346 0.938461,-0.55838 z m -78.003512,2.97473 c 1.55096,-0.70313 2.27755,-1.40317 3.13505,-3.02047 l 0.70141,-1.32292 -0.0296,-6.28797 -0.0296,-6.28798 0.69109,-0.14648 c 0.3801,-0.0806 0.96044,-0.25541 1.28963,-0.38855 0.51023,-0.20636 3.31669,0.26926 3.66927,0.62184 0.0477,0.0477 0.12438,1.86519 0.17048,4.03894 0.0723,3.41144 0.16471,4.13132 0.67497,5.26064 1.33253,2.94913 3.31448,4.36287 6.428811,4.5857 2.234218,0.15985 3.097948,-0.17021 4.442436,-1.69763 1.698257,-1.92932 2.650873,-5.40014 2.66338,-9.70392 0.0063,-2.15626 0.278064,-2.74678 1.499069,-3.25694 0.626768,-0.26188 0.893775,-0.5301 0.833728,-0.8375 -0.07889,-0.40384 -0.441748,-0.44218 -3.39076,-0.35832 -1.816332,0.0517 -3.418808,0.20376 -3.561056,0.33801 -0.410384,0.38732 0.218562,1.13854 1.08036,1.29041 1.104366,0.19462 1.507384,1.54746 1.53625,5.15683 0.02045,2.55736 -0.05299,3.06533 -0.605417,4.18739 -0.423846,0.8609 -0.914201,1.41312 -1.504947,1.69483 -0.808405,0.3855 -0.930452,0.38234 -1.576218,-0.0408 -1.292429,-0.84683 -1.559496,-1.97042 -1.571196,-6.61018 l -0.01061,-4.20832 0.926042,-0.31302 c 0.904806,-0.30583 1.340961,-0.9863 0.833292,-1.30006 -0.353894,-0.21872 -24.801434,-0.25529 -25.153624,-0.0376 -0.93027,0.57494 0.25595,1.4684 1.94954,1.4684 0.80355,0 1.51873,0.14143 1.6724,0.33073 0.16178,0.19928 0.3061,3.24453 0.36313,7.66222 0.0842,6.51966 0.0466,7.37963 -0.33888,7.76625 -0.91157,0.9142 -2.34461,-0.45289 -2.34461,-2.2367 0,-0.8467 0.34153,-1.19374 1.19031,-1.20953 0.70797,-0.0132 0.6038,-1.15704 -0.16353,-1.79578 -0.90114,-0.75013 -2.18833,-0.59889 -2.98763,0.35103 -1.4407,1.71217 -0.59964,4.61525 1.78509,6.16154 1.39259,0.90297 3.9202,0.96732 5.73201,0.14592 z m -10.31875,-9.76735 v -11.37708 h 23.50364 23.503632 l 0.838033,1.04282 c 0.460917,0.57355 0.838031,1.15423 0.838031,1.29041 0,0.13618 -0.510699,0.19004 -1.134886,0.11968 -0.819232,-0.0923 -1.228902,-0.0146 -1.472914,0.27939 -0.349967,0.42168 -0.234159,0.53526 1.417175,1.38983 0.644514,0.33353 1.83652,2.6187 1.581353,3.03157 -0.113403,0.18348 -1.170672,-0.67254 -2.763676,-2.23764 l -2.580013,-2.53481 h -3.029198 c -3.205369,0 -4.173858,0.2904 -3.843092,1.15236 0.115213,0.30024 0.484931,0.43514 1.192607,0.43514 0.704466,0 1.182399,0.17323 1.526273,0.5532 0.453197,0.50078 0.500962,1.02106 0.504026,5.49011 0.0019,2.71529 -0.08707,5.25989 -0.19762,5.65465 -0.150384,0.53699 -0.463413,0.79637 -1.242944,1.02993 -1.06807,0.32 -1.591937,0.94814 -0.984993,1.18104 0.187145,0.0718 1.881777,0.0971 3.765854,0.0561 3.173661,-0.069 3.425589,-0.11174 3.425589,-0.58156 0,-0.33019 -0.276939,-0.59644 -0.79375,-0.76313 -1.035513,-0.33399 -1.404715,-0.64277 -1.8895,-1.58024 -0.494438,-0.95614 -0.891665,-3.33412 -0.588264,-3.52163 0.123126,-0.0761 1.886434,1.47533 3.918458,3.44761 2.032023,1.97228 3.871576,3.58596 4.087894,3.58596 0.216321,0 0.48963,-0.14882 0.607359,-0.33073 0.117729,-0.1819 0.33887,-3.18823 0.491424,-6.68073 0.23038,-5.27418 0.330128,-6.22672 0.588764,-5.62239 0.171267,0.40018 0.381339,0.7276 0.466825,0.7276 0.08549,0 0.517636,-0.79882 0.960327,-1.77515 0.44269,-0.97633 1.273098,-2.46461 1.845349,-3.30729 l 1.040456,-1.53214 h 23.008891 23.008891 v 11.37708 11.37709 h -50.799999 -50.800002 z"
           inkscape:connector-curvature="0" />
        <path
           style="fill:#4d8d40;fill-opacity:1;stroke:#4d8d40;stroke-width:1;stroke-opacity:1"
           d="m -92.035156,264.97461 -4.222656,5.28711 c -2.322078,2.9077 -6.039468,7.76213 -8.261718,10.78711 -2.22226,3.02502 -5.85982,7.97498 -8.08399,11 -7.58825,10.32045 -14.86259,20.49342 -18.75976,26.23437 l -3.89258,5.73438 1.27148,16.26562 c 3.34793,42.80587 -6.08195,67.60695 -34.96093,91.94922 -6.98636,5.88885 -22.403,16.92776 -28.66016,20.52149 -4.64094,2.66547 -4.42443,2.69975 4.84375,0.77343 46.62103,-9.68965 84.56917,-40.61003 101.802736,-82.95117 9.132053,-22.43656 12.075151,-45.62946 8.951172,-70.55469 -1.18006,-9.41525 -5.715854,-26.71036 -8.332032,-31.76953 z m -368.226564,1.79883 -1.90039,3.70508 c -3.92674,7.65403 -7.82439,23.49227 -9.01562,36.63671 -3.58542,39.56361 8.03332,75.66258 33.23242,103.25782 13.65471,14.95313 23.78215,23.12403 37.36914,30.14843 12.44217,6.43257 23.98145,10.81251 38.24609,14.51758 15.45203,4.01348 15.33239,4.07696 4.63477,-2.39258 -25.30447,-15.30315 -43.9004,-33.13131 -52.73047,-50.55664 -7.21266,-14.23355 -10.4773,-38.37477 -8.28906,-61.30078 1.10022,-11.5262 1.09401,-14.18134 -0.041,-16.34765 -1.77131,-3.38068 -32.47883,-46.39647 -38.39258,-53.78125 z m 314.68164,61.03125 -2.59961,2.37109 c -1.42939,1.30447 -6.49804,5.29807 -11.26367,8.87305 -4.76564,3.57502 -12.60251,9.7097 -17.41602,13.63281 l -8.75195,7.13281 -1.13281,13.36719 c -2.38709,28.19025 -10.80865,45.95717 -32.39844,68.34766 -2.6419,2.73989 -4.80273,5.36376 -4.80273,5.83008 0,0.46639 1.2375,0.60282 2.75,0.30273 1.5125,-0.29991 4.54614,-0.85626 6.74219,-1.23633 2.19604,-0.38011 6.92104,-1.90193 10.5,-3.38086 28.38404,-11.72901 52.91035,-46.06451 59.52734,-83.33398 1.79393,-10.10404 1.67951,-24.59917 -0.23438,-29.53516 z m -261.79687,2.375 c -0.94084,1.03925 -2.56836,11.69628 -2.56836,16.81054 0,11.4999 6.0583,35.30805 11.98437,47.09375 14.80048,29.435 38.43109,50.3889 61.31446,54.36719 3.95978,0.68829 7.36824,1.12333 7.57226,0.96875 0.20401,-0.15458 -1.14599,-2.04208 -3,-4.19531 -14.74279,-17.12224 -18.95136,-22.72982 -23.03906,-30.70508 -6.33151,-12.35304 -9.57467,-24.25289 -10.75586,-39.4707 l -0.9707,-12.5 -4.95899,-4.59961 c -2.72744,-2.52941 -9.38822,-7.88669 -14.80273,-11.90625 -5.41448,-4.01957 -12.22856,-9.31586 -15.14258,-11.76953 -2.91402,-2.45371 -5.44951,-4.29634 -5.63281,-4.09375 z m 132.57031,30.84179 c -1.63318,0.10281 -3.33297,0.80022 -4.82422,2.20118 -3.05346,2.86862 -2.93181,6.19385 0.32031,8.75195 4.95643,3.89873 11.36524,1.55661 11.36524,-4.1543 0,-4.37294 -3.26833,-7.02499 -6.86133,-6.79883 z m -27.08008,5.06055 c -6.22345,0.0809 -9.60824,8.06751 -4.83594,11.41016 3.22721,2.26042 6.51037,1.91345 9.41797,-0.99414 1.97759,-1.97768 2.40484,-3.15652 1.90039,-5.25 -0.80754,-3.35139 -3.13959,-5.20948 -6.48242,-5.16602 z m 53.27539,0.0254 c -2.07293,0.10121 -4.15189,1.13458 -5.58789,3.06641 -1.67208,2.24942 -1.76981,2.96499 -0.68555,5 0.69594,1.30617 1.97891,2.92176 2.85157,3.59179 2.37412,1.82276 5.50246,1.52996 8.45312,-0.79101 3.1867,-2.50666 3.32751,-4.77594 0.51953,-8.3457 -1.41026,-1.79286 -3.47785,-2.62269 -5.55078,-2.52149 z m 46.36328,2.29492 c -0.27127,0.025 -0.58684,0.10384 -0.94726,0.2168 -1.2375,0.38782 -7.65,3.51774 -14.25,6.95703 l -12,6.25391 -1.13477,16.85937 c -1.17342,17.43784 -2.08489,21.35942 -7.75,33.35938 -1.42809,3.02498 -2.60055,6.07085 -2.60547,6.76953 -0.007,0.89873 1.15073,0.67779 3.96094,-0.75586 14.47933,-7.38682 28.97086,-31.19425 33.99609,-55.85352 2.35107,-11.53683 2.6294,-13.98136 0.73047,-13.80664 z m -147.94726,1.66211 c -1.36036,-0.028 -0.78218,7.86105 1.24219,16.94922 5.09504,22.87378 16.82725,42.10364 31.69726,51.95313 2.5593,1.69519 5.02141,3.08203 5.47266,3.08203 0.8415,0 -1.79765,-7.6086 -3.33789,-9.62305 -0.4717,-0.61689 -2.02791,-4.44188 -3.45899,-8.5 -2.17754,-6.17484 -2.72554,-9.96912 -3.35937,-23.26758 -0.65949,-13.83639 -0.99316,-16.03387 -2.58594,-17 -4.46886,-2.71067 -24.99392,-13.57863 -25.66992,-13.59375 z m 75.44726,13.08985 c -10.44949,-0.22351 -20.45257,6.87993 -26.5332,19.71484 -3.04789,6.43336 -5.19312,12.89777 -5.16406,19.67969 0.0281,6.56269 2.08242,13.15734 5.16015,19 8.71695,16.54794 8.84271,16.8703 8.6543,21.99609 -0.88055,23.95676 -0.94748,22.79253 1.54688,26.80469 1.29947,2.09019 4.37502,6.14018 6.83398,9 2.45896,2.85982 5.37222,6.94671 6.47461,9.08203 l 2.00586,3.88086 2.77734,-5.50586 c 1.52776,-3.0288 4.08787,-7.47631 5.68946,-9.88281 5.98823,-8.99785 6.69058,-11.48933 7.32617,-25.98242 0.46607,-10.62739 0.97642,-14.13114 2.32812,-16 9.31243,-12.8753 12.70313,-21.48648 12.70313,-32.26172 0,-6.01157 -2.52281,-16.67719 -5.19922,-21.98047 -2.69943,-5.34886 -9.45797,-12.43441 -14.13477,-14.82031 -3.4536,-1.7619 -6.98558,-2.65011 -10.46875,-2.72461 z"
           transform="matrix(0.26458333,0,0,0.26458333,0,91)"
           id="path64"
           inkscape:connector-curvature="0"
           sodipodi:nodetypes="cccccccsscsscccccscscscccccccccccscccccccsscccscccccccccsccccccccccccccccccccccccccscccscscascssccccscsccs" />
        <path
           style="fill:url(#linearGradient4686);fill-opacity:1;stroke-width:1"
           d="m -240.49023,112.01953 c -4.70136,-0.006 -10.04873,1.15581 -13.16016,3.21485 -7.06549,4.67572 -6.88583,3.30341 -8.19922,62.81445 -0.6494,29.42498 -1.8113,71.27497 -2.58203,93 -1.30843,36.88146 -1.86172,60.07026 -1.61719,67.75 0.11057,3.47233 1.63508,4.39674 2.47461,1.5 0.64926,-2.24024 4.78009,-21.67228 7.49219,-35.25 4.89534,-24.50778 8.04761,-40.75895 8.63476,-44.5 0.34528,-2.19999 1.26391,-6.92502 2.04102,-10.5 2.5427,-11.69734 8.85842,-46.04303 12.50391,-68 1.05013,-6.325 2.57726,-14.87503 3.39453,-19 2.67479,-13.50032 4.76287,-31.38611 4.3457,-37.23633 -0.44384,-6.22401 -2.65121,-9.58463 -8.18555,-12.46289 -1.73287,-0.90123 -4.32176,-1.32643 -7.14257,-1.33008 z m -68.49415,1.0293 c -5.86464,0 -12.64666,3.46161 -15.8164,8.07422 -2.15312,3.13323 -2.30113,4.11855 -1.75195,11.55273 0.33023,4.47024 1.4805,12.79526 2.55664,18.5 1.07614,5.70474 3.57591,19.59804 5.55664,30.87305 1.98074,11.27501 4.46173,24.77499 5.51172,30 1.04997,5.22501 3.53603,18.04998 5.52539,28.5 1.98937,10.44998 5.41235,27.99999 7.60742,39 2.19508,10.99997 4.8452,24.49999 5.88867,30 2.06351,10.87642 5.6319,28.65393 6.47266,32.25 0.72005,3.07971 2.1366,2.82761 2.81054,-0.5 0.61468,-3.035 -1.67274,-91.7413 -3.28125,-127.25 -0.56058,-12.37501 -1.53519,-37.8 -2.16797,-56.5 -0.82437,-24.36189 -1.52888,-34.75003 -2.48437,-36.64649 -1.85802,-3.68783 -10.57131,-7.85351 -16.42774,-7.85351 z m 126.28516,11.0332 c -3.98369,0.15008 -7.75614,1.58217 -10.60351,4.26758 -4.0532,3.82269 -4.70126,5.82624 -15.16797,46.92187 -4.10106,16.10208 -9.75216,38.05233 -12.55664,48.77735 -2.80449,10.72501 -6.59738,25.35 -8.42969,32.5 -1.83231,7.14999 -4.90758,19.075 -6.83399,26.5 -1.92639,7.42499 -5.30938,20.47501 -7.51757,29 -2.2082,8.52502 -4.71757,18.18092 -5.57618,21.45898 -0.8586,3.27806 -1.56054,6.99055 -1.56054,8.25 0,1.25945 0.38327,2.29102 0.85351,2.29102 0.77007,0 7.23866,-13.07623 10.88282,-22 0.7861,-1.92503 5.24299,-12.04999 9.90429,-22.5 4.6613,-10.44998 9.54859,-21.47498 10.85938,-24.5 2.45808,-5.67266 11.04827,-25.55004 15.99023,-37 1.54301,-3.57502 3.81113,-8.75002 5.04102,-11.5 3.12618,-6.99001 7.37406,-16.90989 13.48828,-31.5 2.88108,-6.875 6.53054,-15.50077 8.10937,-19.16797 1.57883,-3.6672 2.8711,-6.93555 2.8711,-7.26172 0,-0.32632 0.87812,-2.50052 1.95312,-4.83203 3.66925,-7.95791 8.04713,-21.11581 8.04297,-24.17969 -0.005,-4.16908 -3.12103,-8.95172 -7.88672,-12.10547 -3.686,-2.43929 -7.87959,-3.56999 -11.86328,-3.41992 z m -186.27148,2.13672 c -6.23488,-0.0581 -12.86594,2.46467 -15.90625,6.73437 -3.59089,5.04299 -3.94044,8.9261 -1.49414,16.59571 1.99865,6.26627 3.66269,10.53328 11.89648,30.5 2.65139,6.42958 10.93109,25.72216 13.51953,31.5 0.98559,2.19999 4.59086,10.52501 8.00977,18.5 3.41891,7.97499 7.0089,16.30001 7.97851,18.5 0.96961,2.20002 3.42207,7.82502 5.45118,12.5 2.02911,4.67501 4.51821,10.29997 5.52929,12.5 1.01107,2.19999 3.28624,7.37502 5.05664,11.5 8.49168,19.78537 26.06675,58.36398 27.23828,59.79101 0.66053,0.80474 1.41409,0.93945 1.99805,0.35547 0.58396,-0.58393 -0.01,-5.03525 -1.57422,-11.79297 -2.41888,-10.44903 -3.75648,-15.6612 -10.73242,-41.85351 -1.75782,-6.6 -4.22231,-16.05003 -5.47852,-21 -3.13855,-12.36741 -6.24445,-24.09188 -13.50781,-51 -3.41463,-12.64997 -7.02459,-26.14999 -8.02344,-30 -15.32101,-59.05406 -14.91497,-57.91885 -22.08007,-61.57422 -2.29592,-1.17129 -5.04683,-1.72944 -7.88086,-1.75586 z m 244.88281,39.83008 c -5.4356,0 -10.11881,2.17857 -13.33008,6.20312 -1.4969,1.87601 -6.31871,10.1352 -10.71484,18.35352 -4.39612,8.21828 -12.85844,23.94338 -18.80664,34.94336 -5.9482,11.00001 -12.19242,22.56709 -13.875,25.70508 -1.68258,3.13799 -3.50849,6.51297 -4.0586,7.5 -2.94236,5.27913 -18.74092,34.57887 -23.19531,43.01757 -2.8386,5.37767 -8.86548,16.52736 -13.39258,24.77735 -10.13996,18.47864 -13.48437,25.08199 -13.48437,26.62109 0,1.79887 3.57963,-1.77441 9.63867,-9.62109 2.97288,-3.85002 9.33263,-12.06642 14.13281,-18.25781 4.80018,-6.19144 9.85352,-12.77974 11.22852,-14.64063 1.375,-1.86089 6.775,-8.91894 12,-15.68555 14.56516,-18.86248 31.57668,-41.24358 49.34375,-64.91601 8.87512,-11.82501 16.50071,-21.94997 16.94531,-22.5 8.56085,-10.59035 14.64952,-21.16857 14.6875,-25.51563 0.0602,-6.89442 -9.67498,-15.98437 -17.11914,-15.98437 z m -301.73047,2 c -4.0817,0 -5.7456,0.58831 -9.28906,3.29101 -5.84814,4.46049 -8.83789,9.13727 -8.83789,13.81836 0,2.98772 1.2202,5.60468 5.63476,12.08789 5.0414,7.40383 25.1455,34.48715 39.56836,53.30274 2.95117,3.84998 11.17395,14.64998 18.27149,24 7.0975,9.34998 14.98051,19.69998 17.51953,23 2.53903,3.29998 7.04203,9.14998 10.00586,13 11.98262,15.56534 27.53593,35.3032 31.71679,40.25 4.42424,5.23476 6.28321,6.40551 6.28321,3.95898 0,-1.10861 -8.34983,-18.26855 -11.7793,-24.20898 -2.92027,-5.05845 -35.2207,-64.51726 -35.2207,-64.83399 0,-0.1968 -9.22501,-17.1358 -20.5,-37.64257 -11.27501,-20.50674 -20.5,-37.5361 -20.5,-37.84375 0,-1.04183 -8.34509,-14.66444 -10.42969,-17.0254 -3.15761,-3.5763 -6.96852,-5.15429 -12.44336,-5.15429 z"
           transform="matrix(0.26458333,0,0,0.26458333,0,91)"
           id="path44"
           inkscape:connector-curvature="0" />
      </g>
      <text
         xml:space="preserve"
         style="font-style:normal;font-weight:normal;font-size:7.28475px;line-height:1.25;font-family:sans-serif;letter-spacing:0px;word-spacing:0px;fill:#000000;fill-opacity:1;stroke:none;stroke-width:0.182119"
         x="55.913532"
         y="180.29065"
         id="text4703"
         transform="scale(0.85113714,1.1748988)"><tspan
           sodipodi:role="line"
           x="55.913532"
           y="180.29065"
           style="font-style:normal;font-variant:normal;font-weight:normal;font-stretch:normal;font-family:'Arial Rounded MT Bold';-inkscape-font-specification:'Arial Rounded MT Bold, ';stroke-width:0.182119"
           id="tspan4705">Naturalist Club</tspan></text>
      <text
         xml:space="preserve"
         style="font-style:normal;font-weight:normal;font-size:7.0739px;line-height:1.25;font-family:sans-serif;letter-spacing:0px;word-spacing:0px;fill:#000000;fill-opacity:1;stroke:none;stroke-width:0.176848"
         x="2.4348638"
         y="175.07295"
         id="text4703-6"
         transform="scale(0.8265049,1.2099142)"><tspan
           sodipodi:role="line"
           x="2.4348638"
           y="175.07295"
           style="font-style:normal;font-variant:normal;font-weight:normal;font-stretch:normal;font-family:'Arial Rounded MT Bold';-inkscape-font-specification:'Arial Rounded MT Bold, ';stroke-width:0.176848"
           id="tspan4705-9">Hamilton Junior</tspan></text>
    </g>
  </g>
</svg>
